<svg width="24" height="24" viewBox="0 0 24 24" fill="none" xmlns="http://www.w3.org/2000/svg">
<path d="M13.0305 1.63993L2.04 0.0211552C1.53 -0.0559291 1.0095 0.0793324 0.6195 0.399305C0.2295 0.729459 0 1.2036 0 1.6981V22.1284C0 22.6621 0.45 23.0985 1.0005 23.0985H4.251V18.008C4.251 17.067 5.031 16.3107 6.0015 16.3107H8.502C9.4725 16.3107 10.2525 17.067 10.2525 18.008V23.0985H14.502V3.31833C14.5005 2.48349 13.8795 1.77664 13.0305 1.63993ZM5.5005 14.129H4.0005C3.5865 14.129 3.2505 13.8033 3.2505 13.4018C3.2505 13.0004 3.5865 12.6746 4.0005 12.6746H5.5005C5.9145 12.6746 6.2505 13.0004 6.2505 13.4018C6.2505 13.8033 5.9145 14.129 5.5005 14.129ZM5.5005 11.2202H4.0005C3.5865 11.2202 3.2505 10.8944 3.2505 10.493C3.2505 10.0916 3.5865 9.76578 4.0005 9.76578H5.5005C5.9145 9.76578 6.2505 10.0916 6.2505 10.493C6.2505 10.8944 5.9145 11.2202 5.5005 11.2202ZM5.5005 8.31136H4.0005C3.5865 8.31136 3.2505 7.98557 3.2505 7.58415C3.2505 7.18272 3.5865 6.85693 4.0005 6.85693H5.5005C5.9145 6.85693 6.2505 7.18272 6.2505 7.58415C6.2505 7.98557 5.9145 8.31136 5.5005 8.31136ZM5.5005 5.40251H4.0005C3.5865 5.40251 3.2505 5.07672 3.2505 4.6753C3.2505 4.27388 3.5865 3.94809 4.0005 3.94809H5.5005C5.9145 3.94809 6.2505 4.27388 6.2505 4.6753C6.2505 5.07672 5.9145 5.40251 5.5005 5.40251ZM10.5 14.129H9C8.586 14.129 8.25 13.8033 8.25 13.4018C8.25 13.0004 8.586 12.6746 9 12.6746H10.5C10.914 12.6746 11.25 13.0004 11.25 13.4018C11.25 13.8033 10.914 14.129 10.5 14.129ZM10.5 11.2202H9C8.586 11.2202 8.25 10.8944 8.25 10.493C8.25 10.0916 8.586 9.76578 9 9.76578H10.5C10.914 9.76578 11.25 10.0916 11.25 10.493C11.25 10.8944 10.914 11.2202 10.5 11.2202ZM10.5 8.31136H9C8.586 8.31136 8.25 7.98557 8.25 7.58415C8.25 7.18272 8.586 6.85693 9 6.85693H10.5C10.914 6.85693 11.25 7.18272 11.25 7.58415C11.25 7.98557 10.914 8.31136 10.5 8.31136ZM10.5 5.40251H9C8.586 5.40251 8.25 5.07672 8.25 4.6753C8.25 4.27388 8.586 3.94809 9 3.94809H10.5C10.914 3.94809 11.25 4.27388 11.25 4.6753C11.25 5.07672 10.914 5.40251 10.5 5.40251Z" fill="#232536"/>
<path d="M22.6205 10.1469L15.5 8.70117V22.9051H22.25C23.2145 22.9051 24.0005 22.1444 24.0005 21.2077V11.8049C24.0005 11.0035 23.4365 10.3214 22.6205 10.1469ZM20.2505 19.9962H18.7505C18.3365 19.9962 18.0005 19.6704 18.0005 19.269C18.0005 18.8676 18.3365 18.5418 18.7505 18.5418H20.2505C20.6645 18.5418 21.0005 18.8676 21.0005 19.269C21.0005 19.6704 20.6645 19.9962 20.2505 19.9962ZM20.2505 17.0874H18.7505C18.3365 17.0874 18.0005 16.7616 18.0005 16.3602C18.0005 15.9587 18.3365 15.6329 18.7505 15.6329H20.2505C20.6645 15.6329 21.0005 15.9587 21.0005 16.3602C21.0005 16.7616 20.6645 17.0874 20.2505 17.0874ZM20.2505 14.1785H18.7505C18.3365 14.1785 18.0005 13.8527 18.0005 13.4513C18.0005 13.0499 18.3365 12.7241 18.7505 12.7241H20.2505C20.6645 12.7241 21.0005 13.0499 21.0005 13.4513C21.0005 13.8527 20.6645 14.1785 20.2505 14.1785Z" fill="#FFD050"/>
</svg>
